# xmcd
#
# Track frame offsets:
#	150
#	29052
#	51769
#	72829
#	98853
#	123598
#	147640
#	165898
#	190265
#	214170
#	238082
#
# Disc length: 3496 seconds
#
# Revision: 0
# Processed by: cddbd v1.5.2PL0 Copyright (c) Steve Scherf et al.
# Submitted via: EasyCDDAExtractor 12.0.0.1
#
DISCID=a40da60b
DTITLE=Mylene Farmer - BestHistory
DYEAR=1900
DGENRE=Pop
TTITLE0=Ainsi soit je
TTITLE1=California
TTITLE2=Et si vieillir m'etait conte
TTITLE3=Il n'y a pas d'aillenrs
TTITLE4=Innamoramento
TTITLE5=Jardin de vienne
TTITLE6=Laisse le vent emporter tout
TTITLE7=L'autre
TTITLE8=Pas le temps de vivre
TTITLE9=Regrets
TTITLE10=Rever
EXTD=
EXTT0=
EXTT1=
EXTT2=
EXTT3=
EXTT4=
EXTT5=
EXTT6=
EXTT7=
EXTT8=
EXTT9=
EXTT10=
PLAYORDER=
